<svg xmlns="http://www.w3.org/2000/svg" viewBox="0 0 512 512" width="100%" height="100%">
  <defs>
    <linearGradient id="tealAccent" x1="0%" y1="0%" x2="100%" y2="100%">
      <stop offset="0%" stop-color="#2DD4BF" />
      <stop offset="100%" stop-color="#0F766E" />
    </linearGradient>
    
    <linearGradient id="faceGrad" x1="0%" y1="0%" x2="0%" y2="100%">
      <stop offset="0%" stop-color="#F8FAFC" />
      <stop offset="100%" stop-color="#CBD5E1" />
    </linearGradient>
    
    <linearGradient id="bgGrad" x1="0%" y1="0%" x2="100%" y2="100%">
      <stop offset="0%" stop-color="#1E293B" />
      <stop offset="100%" stop-color="#020617" />
    </linearGradient>
  </defs>

  <rect width="512" height="512" rx="112" fill="url(#bgGrad)" />
  <rect width="508" height="508" x="2" y="2" rx="110" fill="none" stroke="#334155" stroke-width="4" />

  <path d="M 80 110 L 160 110 M 80 150 L 130 150 M 80 190 L 180 190" stroke="#334155" stroke-width="8" stroke-linecap="round" opacity="0.6" />
  <path d="M 432 110 L 352 110 M 432 150 L 382 150 M 432 190 L 332 190" stroke="#334155" stroke-width="8" stroke-linecap="round" opacity="0.6" />
  
  <path d="M 382 165 Q 392 155 402 165 T 422 165" fill="none" stroke="url(#tealAccent)" stroke-width="4" stroke-linecap="round" />

  <g id="ears">
    <path d="M 120 220 L 140 80 L 240 160 Z" fill="#475569" stroke="#1E293B" stroke-width="4" stroke-linejoin="round"/>
    <path d="M 138 200 L 152 105 L 215 160 Z" fill="#94A3B8" />
    <path d="M 392 220 L 372 80 L 272 160 Z" fill="#475569" stroke="#1E293B" stroke-width="4" stroke-linejoin="round"/>
    <path d="M 374 200 L 360 105 L 297 160 Z" fill="#94A3B8" />
  </g>

  <g id="pen-nib-leaf">
    <path d="M 256 30 C 230 70, 215 120, 225 150 C 235 180, 245 190, 256 190 C 267 190, 277 180, 287 150 C 297 120, 282 70, 256 30 Z" fill="url(#tealAccent)" />
    <line x1="256" y1="90" x2="256" y2="160" stroke="#020617" stroke-width="4" stroke-linecap="round" />
    <circle cx="256" cy="85" r="5" fill="#020617" />
    <path d="M 235 130 L 277 130" stroke="#020617" stroke-width="3" stroke-linecap="round" opacity="0.5" />
  </g>

  <ellipse cx="256" cy="280" rx="170" ry="140" fill="url(#faceGrad)" stroke="#1E293B" stroke-width="4" />

  <path d="M 110 280 C 110 200, 210 210, 256 245 C 302 210, 402 200, 402 280 C 402 360, 290 350, 256 315 C 222 350, 110 360, 110 280 Z" fill="#334155" />
  <path d="M 130 280 C 130 220, 210 230, 256 260 C 302 230, 382 220, 382 280 C 382 340, 290 330, 256 300 C 222 330, 130 340, 130 280 Z" fill="#1E293B" />

  <g id="eyes">
    <circle cx="185" cy="275" r="22" fill="#F8FAFC" />
    <circle cx="327" cy="275" r="22" fill="#F8FAFC" />
    <circle cx="185" cy="275" r="14" fill="url(#tealAccent)" />
    <circle cx="327" cy="275" r="14" fill="url(#tealAccent)" />
    <circle cx="185" cy="275" r="8" fill="#020617" />
    <circle cx="327" cy="275" r="8" fill="#020617" />
    <circle cx="190" cy="268" r="5" fill="#FFFFFF" />
    <circle cx="332" cy="268" r="5" fill="#FFFFFF" />
  </g>

  <ellipse cx="256" cy="340" rx="55" ry="40" fill="#F1F5F9" />

  <path d="M 240 325 Q 256 315 272 325 L 268 335 Q 256 345 244 335 Z" fill="#020617" />
  <ellipse cx="250" cy="324" rx="4" ry="2" fill="#FFFFFF" transform="rotate(-20 250 324)" />

  <path d="M 240 355 Q 256 370 272 355" fill="none" stroke="#020617" stroke-width="4" stroke-linecap="round" />

  <path d="M 190 330 L 130 315 M 190 345 L 125 345 M 190 360 L 130 375" stroke="#94A3B8" stroke-width="4" stroke-linecap="round" />
  <path d="M 322 330 L 382 315 M 322 345 L 387 345 M 322 360 L 382 375" stroke="#94A3B8" stroke-width="4" stroke-linecap="round" />

  <g transform="translate(256, 445)">
    <rect x="-30" y="-20" width="60" height="40" rx="8" fill="url(#tealAccent)" />
    <text x="0" y="8" font-family="system-ui, -apple-system, sans-serif" font-size="28" font-weight="900" fill="#020617" text-anchor="middle" dominant-baseline="middle">E</text>
  </g>
</svg>